<svg width="473" height="161" viewBox="0 0 473 161" fill="none" xmlns="http://www.w3.org/2000/svg">
<g id="PARS VIRILIS">
<mask id="path-1-outside-1" maskUnits="userSpaceOnUse" x="0.743774" y="0.21875" width="472" height="161" fill="black">
<rect fill="white" x="0.743774" y="0.21875" width="472" height="161"/>
<path d="M99.1688 8.625H121.044C123.481 8.625 125.721 9.01042 127.763 9.78125C129.804 10.5312 131.565 11.5521 133.044 12.8438C134.523 14.1354 135.679 15.625 136.513 17.3125C137.346 19 137.763 20.7604 137.763 22.5938C137.763 24.8021 137.429 26.875 136.763 28.8125C136.117 30.7292 135.106 32.3958 133.731 33.8125C132.356 35.2292 130.617 36.3542 128.513 37.1875C126.408 38 123.919 38.4062 121.044 38.4062H114.45V47.4375H118.794V56H99.1688V47.4375H104.075V17.2188H99.1688V8.625ZM114.45 17.2188V29.9375H118.731C121.106 29.9375 122.992 29.4375 124.388 28.4375C125.783 27.4375 126.481 25.8542 126.481 23.6875C126.481 21.6667 125.825 20.0833 124.513 18.9375C123.2 17.7917 121.273 17.2188 118.731 17.2188H114.45Z"/>
<path d="M202.494 47.4375H207.213L205.088 40.625H190.525L188.4 47.4375H193.4V56H175.431V47.4375H178.963L191.869 8.625H204.4L217.025 47.4375H220.463V56H202.494V47.4375ZM192.994 32.625H202.556L197.744 17.2188L192.994 32.625Z"/>
<path d="M259.944 8.625H285.006C287.444 8.625 289.621 8.98958 291.538 9.71875C293.454 10.4479 295.069 11.4271 296.381 12.6562C297.694 13.8646 298.694 15.2812 299.381 16.9062C300.09 18.5104 300.444 20.1875 300.444 21.9375C300.444 23.5417 300.267 24.9479 299.913 26.1562C299.579 27.3646 299.079 28.4375 298.413 29.375C297.767 30.3125 296.965 31.1458 296.006 31.875C295.048 32.5833 293.954 33.2292 292.725 33.8125C293.788 34.3542 294.725 35.1875 295.538 36.3125C296.35 37.4167 296.965 38.8542 297.381 40.625L298.975 46.7812H302.881L302.944 56H289.194L287.319 44.75C287.131 43.4167 286.84 42.2708 286.444 41.3125C286.069 40.3333 285.558 39.5417 284.913 38.9375C284.267 38.3125 283.475 37.8542 282.538 37.5625C281.621 37.2708 280.527 37.125 279.256 37.125H275.225V47.4375H279.569V56H259.944V47.4375H264.85V17.2188H259.944V8.625ZM275.225 17.2188V28.6875H281.444C282.631 28.6875 283.694 28.5833 284.631 28.375C285.59 28.1458 286.402 27.8021 287.069 27.3438C287.756 26.8646 288.277 26.2708 288.631 25.5625C289.006 24.8542 289.194 24.0104 289.194 23.0312C289.194 21.1979 288.538 19.7708 287.225 18.75C285.913 17.7292 283.985 17.2188 281.444 17.2188H275.225Z"/>
<path d="M365.738 21.9688C365.633 21.2396 365.373 20.5521 364.956 19.9062C364.56 19.2604 364.04 18.7083 363.394 18.25C362.769 17.7708 362.05 17.3958 361.238 17.125C360.446 16.8542 359.613 16.7188 358.738 16.7188C357.946 16.7188 357.206 16.8021 356.519 16.9688C355.831 17.1354 355.227 17.3958 354.706 17.75C354.206 18.0833 353.8 18.5208 353.488 19.0625C353.196 19.6042 353.05 20.25 353.05 21C353.05 21.9375 353.248 22.6875 353.644 23.25C354.06 23.7917 354.581 24.2396 355.206 24.5938C355.852 24.9479 356.56 25.2292 357.331 25.4375C358.102 25.6458 358.852 25.875 359.581 26.125L368.175 29C369.363 29.4167 370.477 29.9896 371.519 30.7188C372.56 31.4479 373.456 32.3333 374.206 33.375C374.977 34.4167 375.581 35.6146 376.019 36.9688C376.456 38.3229 376.675 39.8438 376.675 41.5312C376.675 43.8229 376.248 45.9167 375.394 47.8125C374.56 49.7083 373.383 51.3333 371.863 52.6875C370.342 54.0417 368.519 55.0938 366.394 55.8438C364.269 56.5938 361.915 56.9688 359.331 56.9688C357.519 56.9688 355.8 56.7604 354.175 56.3438C352.571 55.9479 351.102 55.3646 349.769 54.5938C348.435 53.8229 347.269 52.9062 346.269 51.8438C345.269 50.7604 344.488 49.5417 343.925 48.1875H340.706V38.7812H352.019V40.7188C352.019 41.6562 352.165 42.5208 352.456 43.3125C352.769 44.1042 353.227 44.7917 353.831 45.375C354.435 45.9583 355.196 46.4167 356.113 46.75C357.029 47.0625 358.102 47.2188 359.331 47.2188C361.206 47.2188 362.633 46.7917 363.613 45.9375C364.592 45.0625 365.081 43.8542 365.081 42.3125C365.081 41.5208 364.904 40.8646 364.55 40.3438C364.217 39.8021 363.779 39.3542 363.238 39C362.696 38.625 362.092 38.3125 361.425 38.0625C360.758 37.8125 360.102 37.5833 359.456 37.375L352.3 35.0625C350.946 34.6458 349.633 34.0625 348.363 33.3125C347.113 32.5625 345.998 31.625 345.019 30.5C344.06 29.375 343.29 28.0625 342.706 26.5625C342.144 25.0417 341.863 23.3125 341.863 21.375C341.863 19.125 342.279 17.125 343.113 15.375C343.946 13.6042 345.113 12.1146 346.613 10.9062C348.113 9.69792 349.894 8.78125 351.956 8.15625C354.019 7.53125 356.279 7.21875 358.738 7.21875C360.675 7.21875 362.467 7.44792 364.113 7.90625C365.758 8.34375 367.227 8.9375 368.519 9.6875C369.831 10.4375 370.935 11.3021 371.831 12.2812C372.748 13.2396 373.446 14.2396 373.925 15.2812H377.05V24.7188H365.738V21.9688Z"/>
<path d="M31.9938 107.625H52.275V116.219H48.0563L35.4 155H22.5875L10.3063 116.219H5.74377V107.625H26.0563V116.219H20.9938L29.2438 143.094L37.4625 116.219H31.9938V107.625Z"/>
<path d="M91.6625 107.625H111.944V116.188H106.944V146.438H111.944V155H91.6625V146.438H96.5688V116.188H91.6625V107.625Z"/>
<path d="M152.175 107.625H177.238C179.675 107.625 181.852 107.99 183.769 108.719C185.685 109.448 187.3 110.427 188.613 111.656C189.925 112.865 190.925 114.281 191.613 115.906C192.321 117.51 192.675 119.188 192.675 120.938C192.675 122.542 192.498 123.948 192.144 125.156C191.81 126.365 191.31 127.438 190.644 128.375C189.998 129.312 189.196 130.146 188.238 130.875C187.279 131.583 186.185 132.229 184.956 132.812C186.019 133.354 186.956 134.188 187.769 135.312C188.581 136.417 189.196 137.854 189.613 139.625L191.206 145.781H195.113L195.175 155H181.425L179.55 143.75C179.363 142.417 179.071 141.271 178.675 140.312C178.3 139.333 177.79 138.542 177.144 137.938C176.498 137.312 175.706 136.854 174.769 136.562C173.852 136.271 172.758 136.125 171.488 136.125H167.456V146.438H171.8V155H152.175V146.438H157.081V116.219H152.175V107.625ZM167.456 116.219V127.688H173.675C174.863 127.688 175.925 127.583 176.863 127.375C177.821 127.146 178.633 126.802 179.3 126.344C179.988 125.865 180.508 125.271 180.863 124.562C181.238 123.854 181.425 123.01 181.425 122.031C181.425 120.198 180.769 118.771 179.456 117.75C178.144 116.729 176.217 116.219 173.675 116.219H167.456Z"/>
<path d="M235.188 107.625H255.469V116.188H250.469V146.438H255.469V155H235.188V146.438H240.094V116.188H235.188V107.625Z"/>
<path d="M295.7 107.625H315.981V116.219H310.981V146.438H321.294C321.565 146.438 321.825 146.365 322.075 146.219C322.346 146.052 322.575 145.844 322.763 145.594C322.971 145.344 323.138 145.073 323.263 144.781C323.388 144.49 323.45 144.208 323.45 143.938V137.594H333.575V155H295.7V146.438H300.606V116.219H295.7V107.625Z"/>
<path d="M372.963 107.625H393.244V116.188H388.244V146.438H393.244V155H372.963V146.438H377.869V116.188H372.963V107.625Z"/>
<path d="M456.256 120.969C456.152 120.24 455.892 119.552 455.475 118.906C455.079 118.26 454.558 117.708 453.913 117.25C453.288 116.771 452.569 116.396 451.756 116.125C450.965 115.854 450.131 115.719 449.256 115.719C448.465 115.719 447.725 115.802 447.038 115.969C446.35 116.135 445.746 116.396 445.225 116.75C444.725 117.083 444.319 117.521 444.006 118.062C443.715 118.604 443.569 119.25 443.569 120C443.569 120.938 443.767 121.688 444.163 122.25C444.579 122.792 445.1 123.24 445.725 123.594C446.371 123.948 447.079 124.229 447.85 124.438C448.621 124.646 449.371 124.875 450.1 125.125L458.694 128C459.881 128.417 460.996 128.99 462.038 129.719C463.079 130.448 463.975 131.333 464.725 132.375C465.496 133.417 466.1 134.615 466.538 135.969C466.975 137.323 467.194 138.844 467.194 140.531C467.194 142.823 466.767 144.917 465.913 146.812C465.079 148.708 463.902 150.333 462.381 151.688C460.86 153.042 459.038 154.094 456.913 154.844C454.788 155.594 452.433 155.969 449.85 155.969C448.038 155.969 446.319 155.76 444.694 155.344C443.09 154.948 441.621 154.365 440.288 153.594C438.954 152.823 437.788 151.906 436.788 150.844C435.788 149.76 435.006 148.542 434.444 147.188H431.225V137.781H442.538V139.719C442.538 140.656 442.683 141.521 442.975 142.312C443.288 143.104 443.746 143.792 444.35 144.375C444.954 144.958 445.715 145.417 446.631 145.75C447.548 146.062 448.621 146.219 449.85 146.219C451.725 146.219 453.152 145.792 454.131 144.938C455.11 144.062 455.6 142.854 455.6 141.312C455.6 140.521 455.423 139.865 455.069 139.344C454.735 138.802 454.298 138.354 453.756 138C453.215 137.625 452.61 137.312 451.944 137.062C451.277 136.812 450.621 136.583 449.975 136.375L442.819 134.062C441.465 133.646 440.152 133.062 438.881 132.312C437.631 131.562 436.517 130.625 435.538 129.5C434.579 128.375 433.808 127.062 433.225 125.562C432.663 124.042 432.381 122.312 432.381 120.375C432.381 118.125 432.798 116.125 433.631 114.375C434.465 112.604 435.631 111.115 437.131 109.906C438.631 108.698 440.413 107.781 442.475 107.156C444.538 106.531 446.798 106.219 449.256 106.219C451.194 106.219 452.985 106.448 454.631 106.906C456.277 107.344 457.746 107.938 459.038 108.688C460.35 109.438 461.454 110.302 462.35 111.281C463.267 112.24 463.965 113.24 464.444 114.281H467.569V123.719H456.256V120.969Z"/>
</mask>
<path d="M99.1688 8.625H121.044C123.481 8.625 125.721 9.01042 127.763 9.78125C129.804 10.5312 131.565 11.5521 133.044 12.8438C134.523 14.1354 135.679 15.625 136.513 17.3125C137.346 19 137.763 20.7604 137.763 22.5938C137.763 24.8021 137.429 26.875 136.763 28.8125C136.117 30.7292 135.106 32.3958 133.731 33.8125C132.356 35.2292 130.617 36.3542 128.513 37.1875C126.408 38 123.919 38.4062 121.044 38.4062H114.45V47.4375H118.794V56H99.1688V47.4375H104.075V17.2188H99.1688V8.625ZM114.45 17.2188V29.9375H118.731C121.106 29.9375 122.992 29.4375 124.388 28.4375C125.783 27.4375 126.481 25.8542 126.481 23.6875C126.481 21.6667 125.825 20.0833 124.513 18.9375C123.2 17.7917 121.273 17.2188 118.731 17.2188H114.45Z" stroke="#FFD700" stroke-width="10" mask="url(#path-1-outside-1)"/>
<path d="M202.494 47.4375H207.213L205.088 40.625H190.525L188.4 47.4375H193.4V56H175.431V47.4375H178.963L191.869 8.625H204.4L217.025 47.4375H220.463V56H202.494V47.4375ZM192.994 32.625H202.556L197.744 17.2188L192.994 32.625Z" stroke="#FFD700" stroke-width="10" mask="url(#path-1-outside-1)"/>
<path d="M259.944 8.625H285.006C287.444 8.625 289.621 8.98958 291.538 9.71875C293.454 10.4479 295.069 11.4271 296.381 12.6562C297.694 13.8646 298.694 15.2812 299.381 16.9062C300.09 18.5104 300.444 20.1875 300.444 21.9375C300.444 23.5417 300.267 24.9479 299.913 26.1562C299.579 27.3646 299.079 28.4375 298.413 29.375C297.767 30.3125 296.965 31.1458 296.006 31.875C295.048 32.5833 293.954 33.2292 292.725 33.8125C293.788 34.3542 294.725 35.1875 295.538 36.3125C296.35 37.4167 296.965 38.8542 297.381 40.625L298.975 46.7812H302.881L302.944 56H289.194L287.319 44.75C287.131 43.4167 286.84 42.2708 286.444 41.3125C286.069 40.3333 285.558 39.5417 284.913 38.9375C284.267 38.3125 283.475 37.8542 282.538 37.5625C281.621 37.2708 280.527 37.125 279.256 37.125H275.225V47.4375H279.569V56H259.944V47.4375H264.85V17.2188H259.944V8.625ZM275.225 17.2188V28.6875H281.444C282.631 28.6875 283.694 28.5833 284.631 28.375C285.59 28.1458 286.402 27.8021 287.069 27.3438C287.756 26.8646 288.277 26.2708 288.631 25.5625C289.006 24.8542 289.194 24.0104 289.194 23.0312C289.194 21.1979 288.538 19.7708 287.225 18.75C285.913 17.7292 283.985 17.2188 281.444 17.2188H275.225Z" stroke="#FFD700" stroke-width="10" mask="url(#path-1-outside-1)"/>
<path d="M365.738 21.9688C365.633 21.2396 365.373 20.5521 364.956 19.9062C364.56 19.2604 364.04 18.7083 363.394 18.25C362.769 17.7708 362.05 17.3958 361.238 17.125C360.446 16.8542 359.613 16.7188 358.738 16.7188C357.946 16.7188 357.206 16.8021 356.519 16.9688C355.831 17.1354 355.227 17.3958 354.706 17.75C354.206 18.0833 353.8 18.5208 353.488 19.0625C353.196 19.6042 353.05 20.25 353.05 21C353.05 21.9375 353.248 22.6875 353.644 23.25C354.06 23.7917 354.581 24.2396 355.206 24.5938C355.852 24.9479 356.56 25.2292 357.331 25.4375C358.102 25.6458 358.852 25.875 359.581 26.125L368.175 29C369.363 29.4167 370.477 29.9896 371.519 30.7188C372.56 31.4479 373.456 32.3333 374.206 33.375C374.977 34.4167 375.581 35.6146 376.019 36.9688C376.456 38.3229 376.675 39.8438 376.675 41.5312C376.675 43.8229 376.248 45.9167 375.394 47.8125C374.56 49.7083 373.383 51.3333 371.863 52.6875C370.342 54.0417 368.519 55.0938 366.394 55.8438C364.269 56.5938 361.915 56.9688 359.331 56.9688C357.519 56.9688 355.8 56.7604 354.175 56.3438C352.571 55.9479 351.102 55.3646 349.769 54.5938C348.435 53.8229 347.269 52.9062 346.269 51.8438C345.269 50.7604 344.488 49.5417 343.925 48.1875H340.706V38.7812H352.019V40.7188C352.019 41.6562 352.165 42.5208 352.456 43.3125C352.769 44.1042 353.227 44.7917 353.831 45.375C354.435 45.9583 355.196 46.4167 356.113 46.75C357.029 47.0625 358.102 47.2188 359.331 47.2188C361.206 47.2188 362.633 46.7917 363.613 45.9375C364.592 45.0625 365.081 43.8542 365.081 42.3125C365.081 41.5208 364.904 40.8646 364.55 40.3438C364.217 39.8021 363.779 39.3542 363.238 39C362.696 38.625 362.092 38.3125 361.425 38.0625C360.758 37.8125 360.102 37.5833 359.456 37.375L352.3 35.0625C350.946 34.6458 349.633 34.0625 348.363 33.3125C347.113 32.5625 345.998 31.625 345.019 30.5C344.06 29.375 343.29 28.0625 342.706 26.5625C342.144 25.0417 341.863 23.3125 341.863 21.375C341.863 19.125 342.279 17.125 343.113 15.375C343.946 13.6042 345.113 12.1146 346.613 10.9062C348.113 9.69792 349.894 8.78125 351.956 8.15625C354.019 7.53125 356.279 7.21875 358.738 7.21875C360.675 7.21875 362.467 7.44792 364.113 7.90625C365.758 8.34375 367.227 8.9375 368.519 9.6875C369.831 10.4375 370.935 11.3021 371.831 12.2812C372.748 13.2396 373.446 14.2396 373.925 15.2812H377.05V24.7188H365.738V21.9688Z" stroke="#FFD700" stroke-width="10" mask="url(#path-1-outside-1)"/>
<path d="M31.9938 107.625H52.275V116.219H48.0563L35.4 155H22.5875L10.3063 116.219H5.74377V107.625H26.0563V116.219H20.9938L29.2438 143.094L37.4625 116.219H31.9938V107.625Z" stroke="#FFD700" stroke-width="10" mask="url(#path-1-outside-1)"/>
<path d="M91.6625 107.625H111.944V116.188H106.944V146.438H111.944V155H91.6625V146.438H96.5688V116.188H91.6625V107.625Z" stroke="#FFD700" stroke-width="10" mask="url(#path-1-outside-1)"/>
<path d="M152.175 107.625H177.238C179.675 107.625 181.852 107.99 183.769 108.719C185.685 109.448 187.3 110.427 188.613 111.656C189.925 112.865 190.925 114.281 191.613 115.906C192.321 117.51 192.675 119.188 192.675 120.938C192.675 122.542 192.498 123.948 192.144 125.156C191.81 126.365 191.31 127.438 190.644 128.375C189.998 129.312 189.196 130.146 188.238 130.875C187.279 131.583 186.185 132.229 184.956 132.812C186.019 133.354 186.956 134.188 187.769 135.312C188.581 136.417 189.196 137.854 189.613 139.625L191.206 145.781H195.113L195.175 155H181.425L179.55 143.75C179.363 142.417 179.071 141.271 178.675 140.312C178.3 139.333 177.79 138.542 177.144 137.938C176.498 137.312 175.706 136.854 174.769 136.562C173.852 136.271 172.758 136.125 171.488 136.125H167.456V146.438H171.8V155H152.175V146.438H157.081V116.219H152.175V107.625ZM167.456 116.219V127.688H173.675C174.863 127.688 175.925 127.583 176.863 127.375C177.821 127.146 178.633 126.802 179.3 126.344C179.988 125.865 180.508 125.271 180.863 124.562C181.238 123.854 181.425 123.01 181.425 122.031C181.425 120.198 180.769 118.771 179.456 117.75C178.144 116.729 176.217 116.219 173.675 116.219H167.456Z" stroke="#FFD700" stroke-width="10" mask="url(#path-1-outside-1)"/>
<path d="M235.188 107.625H255.469V116.188H250.469V146.438H255.469V155H235.188V146.438H240.094V116.188H235.188V107.625Z" stroke="#FFD700" stroke-width="10" mask="url(#path-1-outside-1)"/>
<path d="M295.7 107.625H315.981V116.219H310.981V146.438H321.294C321.565 146.438 321.825 146.365 322.075 146.219C322.346 146.052 322.575 145.844 322.763 145.594C322.971 145.344 323.138 145.073 323.263 144.781C323.388 144.49 323.45 144.208 323.45 143.938V137.594H333.575V155H295.7V146.438H300.606V116.219H295.7V107.625Z" stroke="#FFD700" stroke-width="10" mask="url(#path-1-outside-1)"/>
<path d="M372.963 107.625H393.244V116.188H388.244V146.438H393.244V155H372.963V146.438H377.869V116.188H372.963V107.625Z" stroke="#FFD700" stroke-width="10" mask="url(#path-1-outside-1)"/>
<path d="M456.256 120.969C456.152 120.24 455.892 119.552 455.475 118.906C455.079 118.26 454.558 117.708 453.913 117.25C453.288 116.771 452.569 116.396 451.756 116.125C450.965 115.854 450.131 115.719 449.256 115.719C448.465 115.719 447.725 115.802 447.038 115.969C446.35 116.135 445.746 116.396 445.225 116.75C444.725 117.083 444.319 117.521 444.006 118.062C443.715 118.604 443.569 119.25 443.569 120C443.569 120.938 443.767 121.688 444.163 122.25C444.579 122.792 445.1 123.24 445.725 123.594C446.371 123.948 447.079 124.229 447.85 124.438C448.621 124.646 449.371 124.875 450.1 125.125L458.694 128C459.881 128.417 460.996 128.99 462.038 129.719C463.079 130.448 463.975 131.333 464.725 132.375C465.496 133.417 466.1 134.615 466.538 135.969C466.975 137.323 467.194 138.844 467.194 140.531C467.194 142.823 466.767 144.917 465.913 146.812C465.079 148.708 463.902 150.333 462.381 151.688C460.86 153.042 459.038 154.094 456.913 154.844C454.788 155.594 452.433 155.969 449.85 155.969C448.038 155.969 446.319 155.76 444.694 155.344C443.09 154.948 441.621 154.365 440.288 153.594C438.954 152.823 437.788 151.906 436.788 150.844C435.788 149.76 435.006 148.542 434.444 147.188H431.225V137.781H442.538V139.719C442.538 140.656 442.683 141.521 442.975 142.312C443.288 143.104 443.746 143.792 444.35 144.375C444.954 144.958 445.715 145.417 446.631 145.75C447.548 146.062 448.621 146.219 449.85 146.219C451.725 146.219 453.152 145.792 454.131 144.938C455.11 144.062 455.6 142.854 455.6 141.312C455.6 140.521 455.423 139.865 455.069 139.344C454.735 138.802 454.298 138.354 453.756 138C453.215 137.625 452.61 137.312 451.944 137.062C451.277 136.812 450.621 136.583 449.975 136.375L442.819 134.062C441.465 133.646 440.152 133.062 438.881 132.312C437.631 131.562 436.517 130.625 435.538 129.5C434.579 128.375 433.808 127.062 433.225 125.562C432.663 124.042 432.381 122.312 432.381 120.375C432.381 118.125 432.798 116.125 433.631 114.375C434.465 112.604 435.631 111.115 437.131 109.906C438.631 108.698 440.413 107.781 442.475 107.156C444.538 106.531 446.798 106.219 449.256 106.219C451.194 106.219 452.985 106.448 454.631 106.906C456.277 107.344 457.746 107.938 459.038 108.688C460.35 109.438 461.454 110.302 462.35 111.281C463.267 112.24 463.965 113.24 464.444 114.281H467.569V123.719H456.256V120.969Z" stroke="#FFD700" stroke-width="10" mask="url(#path-1-outside-1)"/>
</g>
</svg>
